<svg width="173" height="40" viewBox="0 0 173 40" fill="none" xmlns="http://www.w3.org/2000/svg">
<g clip-path="url(#clip0_10_724)">
<path d="M68.5456 28.2008V33.0243H48.4619V29.2167L60.5623 15.5816H48.4619V10.7598H68.1941V14.7498L56.5422 28.2008H68.5456Z" fill="#F1F1F1"/>
<path d="M91.6884 18.651V33.031H85.7302V29.9615H85.5997C84.8533 31.1448 82.6625 33.2502 78.321 33.2502C73.9796 33.2502 70.957 30.795 70.957 26.8485C70.957 22.5523 74.2005 19.2653 83.5378 19.2653H85.7302V18.6075C85.7302 16.1958 84.2407 14.7498 81.829 14.7498C79.4608 14.7498 78.0148 16.0201 77.839 17.9498H71.9646C72.0516 12.9523 76.0851 10.1891 81.829 10.1891C88.1855 10.1891 91.6884 13.3054 91.6884 18.651ZM85.7302 24.6125V23.0343H83.583C78.5403 23.0343 77.0943 24.569 77.0943 26.41C77.0943 28.0335 78.4097 29.0377 80.475 29.0377C83.4072 29.0377 85.7302 27.0678 85.7302 24.6125Z" fill="#F1F1F1"/>
<path d="M117.999 19.3523V33.031H111.816V20.6695C111.816 17.5565 110.281 15.6268 107.871 15.6268C104.758 15.6268 102.609 17.7757 102.609 21.7205V33.0326H96.4287V10.7598H102.609V14.8803C104.014 11.6803 106.556 10.1941 109.756 10.1941C115.061 10.1891 117.999 13.9163 117.999 19.3523Z" fill="#F1F1F1"/>
<path d="M130.055 15.5816V24.7448C130.055 27.0243 131.414 28.2594 133.65 28.2594C134.571 28.2594 135.71 28.1272 137.289 27.2937V32.5105C135.884 33.2569 134.132 33.4761 132.684 33.4761C127.381 33.4761 123.873 30.3632 123.873 25.6285V15.5866H119.883V10.7598H119.972C122.649 10.7598 123.873 9.6636 123.873 7.07782V4.10042H130.055V10.7649H137.727V15.5816H130.055Z" fill="#F1F1F1"/>
<path d="M143.571 0H143.772C144.74 0 145.668 0.384398 146.352 1.06863C147.036 1.75286 147.421 2.68088 147.421 3.64854C147.421 4.12759 147.326 4.60195 147.143 5.04451C146.96 5.48708 146.691 5.88918 146.352 6.22785C146.013 6.56651 145.611 6.8351 145.168 7.01828C144.726 7.20145 144.251 7.29562 143.772 7.2954H143.571C143.092 7.29562 142.618 7.20145 142.175 7.01828C141.733 6.8351 141.33 6.56651 140.992 6.22785C140.653 5.88918 140.384 5.48708 140.201 5.04451C140.017 4.60195 139.923 4.12759 139.923 3.64854C139.923 2.68088 140.307 1.75286 140.991 1.06863C141.676 0.384398 142.604 0 143.571 0ZM140.581 10.7598H146.751V33.031H140.576L140.581 10.7598Z" fill="#F1F1F1"/>
<path d="M161.794 33.6C154.693 33.6 150.265 28.8218 150.265 21.851C150.265 14.9674 154.693 10.1891 161.794 10.1891C167.801 10.1891 171.965 13.6536 172.579 19.2268H166.486C166.047 16.6845 164.469 15.0192 161.707 15.0192C158.243 15.0192 156.226 17.7807 156.226 21.8577C156.226 25.9347 158.243 28.6962 161.707 28.6962C164.601 28.6962 166.179 26.9439 166.618 24.1774H172.666C172.191 29.8745 168.02 33.6 161.794 33.6Z" fill="#F1F1F1"/>
<path d="M32.6089 7.09457C33.1675 7.66506 33.5889 8.35519 33.8412 9.11267C34.0936 9.87015 34.1703 10.6751 34.0654 11.4666C33.9606 12.2581 33.677 13.0154 33.2362 13.6811C32.7954 14.3467 32.2089 14.9034 31.5211 15.3088C26.5628 18.2239 20.7769 19.4101 15.0716 18.6813C9.3662 17.9525 4.06432 15.3499 -0.00195312 11.282L7.33696 3.7908C9.767 6.22021 12.9318 7.77843 16.3391 8.22307C19.7463 8.66771 23.205 7.97383 26.1771 6.24938C27.1889 5.65322 28.3706 5.41181 29.5351 5.56339C30.6996 5.71498 31.7802 6.2509 32.6056 7.0862L32.6089 7.09457Z" fill="#9C5AFF"/>
<path d="M32.5778 7.06109C31.5942 6.07802 30.2605 5.52577 28.8699 5.52577C27.4792 5.52577 26.1455 6.07802 25.1619 7.06109L2.90251 29.3205C1.91943 30.3041 1.36719 31.6378 1.36719 33.0285C1.36719 34.4191 1.91943 35.7528 2.90251 36.7364C3.38931 37.2236 3.96734 37.6101 4.60357 37.8737C5.2398 38.1374 5.92176 38.2731 6.61046 38.2731C7.29916 38.2731 7.98112 38.1374 8.61735 37.8737C9.25358 37.6101 9.83161 37.2236 10.3184 36.7364L32.5778 14.477C33.065 13.9902 33.4515 13.4122 33.7151 12.7759C33.9788 12.1397 34.1145 11.4577 34.1145 10.769C34.1145 10.0803 33.9788 9.39839 33.7151 8.76216C33.4515 8.12593 33.065 7.5479 32.5778 7.06109Z" fill="url(#paint0_linear_10_724)"/>
<path d="M2.8757 36.6946C2.31708 36.1243 1.89556 35.4344 1.64309 34.6772C1.39061 33.9199 1.31379 33.1151 1.41846 32.3237C1.52313 31.5323 1.80653 30.7752 2.2472 30.1096C2.68786 29.444 3.27423 28.8874 3.96189 28.482C8.9205 25.5674 14.7063 24.3814 20.4118 25.1098C26.1172 25.8383 31.4194 28.4401 35.4866 32.5071L28.1443 40C25.7143 37.5706 22.5495 36.0124 19.1422 35.5677C15.7349 35.1231 12.2763 35.817 9.30415 37.5414C8.29127 38.136 7.10892 38.3756 5.94446 38.2222C4.78 38.0688 3.70003 37.5312 2.8757 36.6946Z" fill="url(#paint1_linear_10_724)"/>
</g>
<defs>
<linearGradient id="paint0_linear_10_724" x1="33.7762" y1="8.70628" x2="11.0515" y2="27.3992" gradientUnits="userSpaceOnUse">
<stop stop-color="#22BFFF"/>
<stop offset="0.15" stop-color="#22BFFF" stop-opacity="0.84"/>
<stop offset="0.57" stop-color="#22BFFF" stop-opacity="0.39"/>
<stop offset="0.87" stop-color="#22BFFF" stop-opacity="0.11"/>
<stop offset="1" stop-color="#22BFFF" stop-opacity="0"/>
</linearGradient>
<linearGradient id="paint1_linear_10_724" x1="1.79453" y1="32.6025" x2="35.269" y2="32.3582" gradientUnits="userSpaceOnUse">
<stop stop-color="#FFC99E"/>
<stop offset="0.67" stop-color="#FF87A4"/>
<stop offset="1" stop-color="#FF6BA6"/>
</linearGradient>
<clipPath id="clip0_10_724">
<rect width="172.668" height="40" fill="white"/>
</clipPath>
</defs>
</svg>
