<svg width="187" height="40" viewBox="0 0 187 40" fill="none" xmlns="http://www.w3.org/2000/svg">
<g clip-path="url(#clip0_10_725)">
<path d="M39.2644 0H0.667969V7.01745H39.2644V0Z" fill="#FF3366"/>
<path d="M9.42117 10.5263H0.668945V17.5438H15.6188L2.14401 40H10.3277L18.4471 26.4686C20.4247 23.1733 20.4751 19.2097 18.5817 15.8665C16.6883 12.5218 13.2639 10.5263 9.42085 10.5263H9.42117Z" fill="#FF3366"/>
<path d="M21.3516 15.8665C19.4582 19.2097 19.5073 23.1733 21.4849 26.4686L29.6042 40H37.788L24.3144 17.5438H39.2646V10.5263H30.5108C26.6681 10.5263 23.2434 12.5221 21.3516 15.8665Z" fill="#FF3366"/>
<path d="M70.3466 7.01744H48.6045V11.7284H56.8662V33.0355H62.0845V11.7284H70.3466V7.01744Z" fill="#F1F1F1"/>
<path d="M84.3337 16.5114C83.6088 15.4488 82.7692 14.6515 81.8152 14.12C80.8605 13.5889 79.7316 13.323 78.4269 13.323C76.6151 13.323 75.0445 13.7579 73.716 14.6274C72.3872 15.4973 71.3662 16.6928 70.654 18.215C69.9412 19.7369 69.585 21.4525 69.585 23.3605C69.585 25.2685 69.9412 26.9786 70.654 28.4881C71.3662 29.9983 72.3628 31.1941 73.6435 32.0757C74.9235 32.9578 76.4337 33.3983 78.173 33.3983C79.429 33.3983 80.5829 33.1083 81.6338 32.5285C82.6847 31.9489 83.5844 31.1395 84.3333 30.1007V33.0359H88.6818V13.6851H84.3333V16.5114H84.3337ZM83.301 26.4767C82.8781 27.3465 82.3102 28.0109 81.5977 28.4696C80.8849 28.9289 80.0937 29.158 79.2242 29.158C77.8954 29.158 76.7783 28.6633 75.8724 27.6722C74.9664 26.6818 74.5133 25.2445 74.5133 23.3602C74.5133 21.4518 74.9664 20.0083 75.8724 19.0299C76.7783 18.0515 77.8954 17.5623 79.2242 17.5623C80.0697 17.5623 80.8485 17.7798 81.5613 18.2147C82.2735 18.6496 82.8479 19.2899 83.2825 20.1354C83.7174 20.9811 83.9348 22.044 83.9348 23.3241C83.9348 24.5563 83.7232 25.6069 83.3007 26.4767H83.301Z" fill="#F1F1F1"/>
<path d="M103.503 13.3227C102.223 13.3227 101.081 13.6188 100.079 14.2104C99.0763 14.8026 98.213 15.5818 97.4881 16.5478V13.6851H93.1396V33.0355H97.8866V22.4543C97.8866 21.367 98.0615 20.4676 98.4119 19.7544C98.7617 19.0422 99.233 18.4988 99.8252 18.124C100.417 17.7495 101.063 17.5623 101.764 17.5623C102.947 17.5623 103.835 17.9608 104.427 18.7581C105.019 19.5552 105.315 20.6912 105.315 22.1643V33.0355H110.062V20.57C110.062 18.2508 109.458 16.4633 108.25 15.207C107.042 13.9514 105.46 13.3227 103.503 13.3227H103.503Z" fill="#F1F1F1"/>
<path d="M127.6 16.3665C126.899 15.4004 126.047 14.6515 125.045 14.1197C124.042 13.5886 122.962 13.3227 121.802 13.3227C120.063 13.3227 118.552 13.7576 117.272 14.6271C115.992 15.497 114.995 16.6925 114.283 18.2147C113.57 19.7365 113.214 21.4521 113.214 23.3602C113.214 25.2682 113.57 26.9783 114.283 28.4878C114.995 29.998 115.992 31.1938 117.272 32.0753C118.552 32.9575 120.063 33.398 121.802 33.398C123.058 33.398 124.212 33.108 125.263 32.5281C126.314 31.9486 127.213 31.1392 127.962 30.1004V33.0355H132.311V7.01744H127.6V16.3665H127.6ZM126.93 26.4767C126.507 27.3466 125.939 28.0109 125.226 28.4696C124.513 28.9289 123.722 29.158 122.853 29.158C121.524 29.158 120.407 28.6633 119.501 27.6723C118.595 26.6818 118.142 25.2445 118.142 23.3602C118.142 21.4518 118.595 20.0083 119.501 19.0299C120.407 18.0515 121.524 17.5623 122.853 17.5623C123.698 17.5623 124.477 17.7798 125.19 18.2147C125.902 18.6496 126.476 19.2899 126.911 20.1354C127.346 20.9811 127.563 22.0441 127.563 23.3241C127.563 24.5563 127.352 25.6069 126.929 26.4767H126.93Z" fill="#F1F1F1"/>
<path d="M152.331 16.5657C151.498 15.5392 150.471 14.7422 149.251 14.1743C148.031 13.6071 146.66 13.3227 145.139 13.3227C143.302 13.3227 141.672 13.7576 140.247 14.6271C138.821 15.4969 137.698 16.6746 136.876 18.1604C136.055 19.6459 135.645 21.3556 135.645 23.288C135.645 25.2936 136.043 27.0566 136.84 28.5785C137.638 30.1004 138.755 31.2845 140.192 32.1296C141.629 32.9754 143.314 33.398 145.247 33.398C147.59 33.398 149.553 32.7882 151.136 31.5679C152.718 30.3484 153.775 28.651 154.307 26.4767H149.596C149.306 27.4915 148.781 28.2768 148.019 28.832C147.258 29.3882 146.298 29.6654 145.139 29.6654C144.124 29.6654 143.266 29.4243 142.566 28.9406C141.865 28.4576 141.334 27.7392 140.971 26.7845C140.726 26.1393 140.566 25.3946 140.487 24.556H154.379C154.596 22.986 154.518 21.5185 154.144 20.1533C153.769 18.7887 153.165 17.5929 152.332 16.5657H152.331ZM140.55 21.512C140.643 20.8781 140.788 20.3031 140.989 19.7908C141.363 18.8368 141.889 18.112 142.565 17.6169C143.242 17.1219 144.075 16.8739 145.066 16.8739C146.298 16.8739 147.3 17.285 148.073 18.1061C148.846 18.9275 149.257 20.0629 149.305 21.5123H140.549L140.55 21.512Z" fill="#F1F1F1"/>
<path d="M184.909 15.207C183.713 13.9514 182.137 13.3227 180.18 13.3227C178.73 13.3227 177.486 13.6432 176.447 14.2829C175.408 14.9232 174.514 15.7989 173.766 16.9099C173.306 15.7505 172.575 14.8625 171.573 14.2465C170.57 13.6305 169.404 13.3227 168.076 13.3227C166.772 13.3227 165.648 13.6068 164.706 14.1743C163.764 14.7422 162.93 15.5334 162.206 16.5478V13.6851H157.857V33.0355H162.604V22.2007C162.604 21.2103 162.773 20.3707 163.112 19.6823C163.45 18.9938 163.909 18.4682 164.489 18.1058C165.068 17.7434 165.708 17.5623 166.409 17.5623C167.569 17.5623 168.444 17.9553 169.036 18.7399C169.628 19.5253 169.924 20.6304 169.924 22.0558V33.0355H174.635V22.2007C174.635 21.2103 174.81 20.3707 175.161 19.6823C175.51 18.9938 175.976 18.4682 176.556 18.1058C177.136 17.7434 177.775 17.5623 178.476 17.5623C179.636 17.5623 180.512 17.9553 181.104 18.7399C181.695 19.5253 181.992 20.6304 181.992 22.0558V33.0355H186.702V20.57C186.702 18.2508 186.104 16.4633 184.909 15.207Z" fill="#F1F1F1"/>
</g>
<defs>
<clipPath id="clip0_10_725">
<rect width="186.034" height="40" fill="white" transform="translate(0.667969)"/>
</clipPath>
</defs>
</svg>
