<svg width="120" height="40" viewBox="0 0 120 40" fill="none" xmlns="http://www.w3.org/2000/svg">
<g clip-path="url(#clip0_10_720)">
<path d="M59.589 11.2076V21.7969C59.589 27.4007 55.8789 29.7583 51.1639 29.7583C46.4489 29.7583 42.7388 27.4007 42.7388 21.7969V11.2076H45.792V21.7969C45.792 25.7775 48.2268 27.0529 51.1639 27.0529C54.101 27.0529 56.5358 25.7775 56.5358 21.7969V11.2076H59.589Z" fill="#F1F1F1"/>
<path d="M78.8024 17.9708V29.3718H75.7492V18.3573C75.7492 14.995 73.7395 13.5264 70.7251 13.5264C67.5174 13.5264 65.0052 15.0337 65.0052 19.8646V29.3718H61.9521V11.2076H65.0052V13.7969C66.3965 11.5554 68.7541 10.8212 71.2659 10.8212C75.7877 10.8212 78.8022 13.2173 78.8022 17.9708H78.8024Z" fill="#F1F1F1"/>
<path d="M84.6345 3.09175V7.42017H81.3496V3.09175H84.6345ZM81.4654 11.2076H84.5184V29.3718H81.4654V11.2076Z" fill="#F1F1F1"/>
<path d="M115.962 11.2076L109.663 26.2026L103.016 11.2076H93.8187V7.42018C93.8187 4.63754 95.8284 2.70522 98.7268 2.70522C100.427 2.70522 101.935 3.24623 103.017 4.05801V1.15943C101.896 0.463772 100.311 0 98.5724 0C93.9733 0 90.7657 3.05305 90.7657 7.42018V11.2076H86.1279V13.9128H90.7657V29.3716H93.8189V13.913H100.891L108.156 29.7968L107.77 30.7244C106.649 33.3911 105.451 34.3958 103.287 34.3958C102.359 34.3958 101.316 34.1253 99.6538 33.4296V36.3669C100.968 36.9466 102.205 37.1011 102.977 37.1011C106.804 37.1011 108.774 35.4005 110.514 31.4586L119.325 11.2076H115.963H115.962Z" fill="#F1F1F1"/>
<path d="M0.702148 0.965897V23.4857C0.702148 32.5917 8.11043 40.0002 17.2167 40.0002C26.3229 40.0002 33.7312 32.5919 33.7312 23.4857V0.965897H0.702148ZM3.70477 3.96852H30.7284V14C27.7371 9.75182 22.7956 6.97114 17.2165 6.97114C11.6374 6.97114 6.69585 9.75182 3.70459 14V3.96852H3.70477ZM17.2167 36.9974C10.2738 36.9974 4.53697 31.7332 3.78769 24.9869H30.6456C29.8964 31.7332 24.1596 36.9974 17.2167 36.9974ZM3.78858 21.9843C4.53786 15.2379 10.2736 9.97377 17.2165 9.97377C24.1594 9.97377 29.8953 15.2379 30.6444 21.9843H3.78858Z" fill="#8366FF"/>
</g>
<defs>
<clipPath id="clip0_10_720">
<rect width="118.622" height="40" fill="white" transform="translate(0.702148)"/>
</clipPath>
</defs>
</svg>
