<svg width="101" height="40" viewBox="0 0 101 40" fill="none" xmlns="http://www.w3.org/2000/svg">
<g clip-path="url(#clip0_10_716)">
<path d="M16.9204 0H9.68644V2.5532H16.9204C24.6635 2.5532 30.963 8.85267 30.963 16.5957C30.963 24.3388 24.6635 30.6383 16.9204 30.6383C14.3526 30.6383 11.8662 29.9452 9.68644 28.6313V27.6321C11.8155 29.0345 14.307 29.7872 16.9204 29.7872C24.1943 29.7872 30.1119 23.8696 30.1119 16.5957C30.1119 9.32187 24.1943 3.40427 16.9204 3.40427H6.28217V5.95747H16.9204C22.7864 5.95747 27.5587 10.7299 27.5587 16.5957C27.5587 22.4616 22.7863 27.234 16.9204 27.234C14.2086 27.234 11.6594 26.23 9.68644 24.3965V23.1812C11.4778 25.1472 14.0575 26.3829 16.9204 26.3829C22.3171 26.3829 26.7076 21.9924 26.7076 16.5957C26.7076 11.1991 22.3171 6.80853 16.9204 6.80853H0.324707V40H2.87791V9.36173H16.9204C20.9092 9.36173 24.1544 12.6069 24.1544 16.5957C24.1544 20.5845 20.9092 23.8297 16.9204 23.8297C12.9316 23.8297 9.68644 20.5845 9.68644 16.5957V16.1703H7.13324V33.1916H9.68644V31.5349C11.9288 32.6232 14.3916 33.1916 16.9204 33.1916C26.0714 33.1916 33.5162 25.7468 33.5162 16.5959C33.5162 7.44493 26.0714 0 16.9204 0Z" fill="#5551FF"/>
<path d="M6.2822 12.766H3.729V36.5957H6.2822V12.766Z" fill="#5551FF"/>
<path d="M58.5005 22.9035C58.5005 18.49 61.375 15.238 65.9917 15.238C70.5794 15.238 73.0184 18.49 73.0184 23.0196V23.6003H61.8105V23.6293C61.9848 26.0683 63.3785 27.7524 65.9337 27.7524C67.821 27.7524 68.9244 26.9104 69.6502 25.4876H72.9313C72.0602 28.3331 69.8534 30.4527 66.0498 30.4527C61.23 30.4527 58.5006 27.2296 58.5006 22.9033L58.5005 22.9035ZM69.7082 21.3356C69.3309 19.2451 68.1984 17.8513 65.9626 17.8513C63.756 17.8513 62.3913 19.2451 61.9266 21.3356H69.7082Z" fill="#F1F1F1"/>
<path d="M78.2593 18.4901V15.5285H75.0654V30.1625H78.2593V25.0523C78.2593 20.3484 78.2426 18.1417 85.2693 18.6064V15.2963C81.1462 15.2963 79.3917 16.3125 78.2593 18.4901Z" fill="#F1F1F1"/>
<path d="M85.692 22.8164C85.692 18.3159 88.8279 15.2091 92.8638 15.2091C95.0706 15.2091 96.6095 16.022 97.6256 17.648H97.6546V15.5284H100.878V30.1624H97.6546V27.7815H97.5964C96.5512 29.4945 95.1284 30.4528 92.7766 30.4528C88.8858 30.4528 85.6919 27.2879 85.6919 22.8164H85.692ZM88.944 22.8164C88.944 25.6909 90.8603 27.6944 93.4155 27.6944C96.0287 27.6944 97.6838 25.72 97.6838 22.9325V22.7003C97.6548 19.8837 95.9707 17.9673 93.3866 17.9673C90.8604 17.9673 88.9442 19.9708 88.9442 22.8164H88.944Z" fill="#F1F1F1"/>
<path d="M50.763 9.83746H42.8779V30.1625H46.3913V24.0153H50.763C54.6781 24.0153 57.8518 20.8416 57.8518 16.9265C57.8518 13.0115 54.6779 9.83773 50.763 9.83773V9.83746ZM50.2198 21.0825H46.3913V12.77H50.2198C52.5153 12.77 54.3761 14.6308 54.3761 16.9263C54.3761 19.2217 52.5153 21.0825 50.2198 21.0825Z" fill="#F1F1F1"/>
</g>
<defs>
<clipPath id="clip0_10_716">
<rect width="100.553" height="40" fill="white" transform="translate(0.324707)"/>
</clipPath>
</defs>
</svg>
