<svg width="164" height="40" viewBox="0 0 164 40" fill="none" xmlns="http://www.w3.org/2000/svg">
<g clip-path="url(#clip0_10_717)">
<path d="M48.8774 32.0586H54.5966V22.3082H63.0032V17.9672H54.5966V12.4891H63.4166L63.6922 7.94144H48.8774V32.0586Z" fill="#F1F1F1"/>
<path d="M67.103 32.0586H72.6845V5.80528L67.103 6.87328V32.0586Z" fill="#F1F1F1"/>
<path d="M80.1612 5.94321C78.3351 5.94321 76.957 7.25233 76.957 8.94065C76.957 10.5944 78.3351 11.9035 80.1612 11.9035C81.8839 11.9035 83.2964 10.5942 83.2964 8.94065C83.2964 7.25249 81.8839 5.94321 80.1612 5.94321Z" fill="#F1F1F1"/>
<path d="M77.2666 32.0586H82.848V13.695L77.2666 14.763V32.0586Z" fill="#F1F1F1"/>
<path d="M104.209 14.1085H98.4897L93.0116 22.7907V5.80528L87.4302 6.87328V32.0586H93.0116V23.4453L98.4551 32.0586H105.001L98.4897 22.3082L104.209 14.1085Z" fill="#F1F1F1"/>
<path d="M118.36 13.695C116.293 13.695 114.467 14.4874 113.089 15.521V5.80528L107.508 6.87328V32.4718L111.952 31.1627C113.124 31.9206 114.571 32.4718 116.362 32.4718C120.049 32.4718 124.975 30.4046 124.975 22.8594C124.975 17.1747 122.46 13.695 118.36 13.695H118.36ZM115.949 28.0275C114.881 28.0275 113.778 27.683 113.089 27.1662V18.932C113.882 18.484 115.053 18.1395 116.087 18.1395C118.119 18.1395 119.291 19.5522 119.291 22.963C119.291 26.7184 118.016 28.0277 115.949 28.0277L115.949 28.0275Z" fill="#F1F1F1"/>
<path d="M136.361 13.695C130.779 13.695 127.265 17.3814 127.265 23.1006C127.265 28.8198 130.848 32.4718 136.361 32.4718C141.942 32.4718 145.491 28.8544 145.491 23.135C145.491 17.4157 141.873 13.695 136.361 13.695ZM136.361 28.2342C134.19 28.2342 132.915 26.3738 132.915 23.1006C132.915 19.8621 134.19 17.9326 136.361 17.9326C138.566 17.9326 139.841 19.8621 139.841 23.135C139.841 26.3738 138.566 28.2342 136.361 28.2342Z" fill="#F1F1F1"/>
<path d="M157.48 22.7218L163.2 14.1085H157.894L155 18.9664L151.692 13.695L146.352 14.6942L151.796 23.204L145.973 32.0586H151.313L154.345 26.8906L157.549 32.0586H163.544L157.48 22.7218Z" fill="#F1F1F1"/>
<path d="M0.877441 4.00016L21.6622 15.9997V8.00032L7.8064 0L0.877441 4.00016Z" fill="#7B1DFF"/>
<path d="M0.877441 4.00015L21.6622 15.9997L0.878561 11.9995L0.877441 4.00015Z" fill="#F1F1F1"/>
<path d="M35.5441 15.9984L14.7598 27.9987L21.6874 31.9984L35.5438 23.9991L35.5441 15.9984Z" fill="#35F9C0"/>
<path d="M35.5441 15.9984L14.7598 27.9987L28.6159 11.9995L35.5441 15.9984Z" fill="#F1F1F1"/>
<path d="M7.80624 40L7.8056 16.0002L0.878081 19.9998L0.877441 35.9995L7.80624 40Z" fill="#FFC207"/>
<path d="M7.8063 40L7.80566 16.0002L14.7333 35.9994L7.8063 40Z" fill="#F1F1F1"/>
</g>
<defs>
<clipPath id="clip0_10_717">
<rect width="162.667" height="40" fill="white" transform="translate(0.877441)"/>
</clipPath>
</defs>
</svg>
