<svg width="148" height="40" viewBox="0 0 148 40" fill="none" xmlns="http://www.w3.org/2000/svg">
<g clip-path="url(#clip0_10_718)">
<path d="M17.8645 20C17.8645 13.812 21.1658 8.094 26.5249 5L17.8645 0L0.543945 10V30L17.8645 40L26.5249 35C21.1658 31.906 17.8645 26.188 17.8645 20Z" fill="#6D47F1"/>
<path d="M35.1853 0L26.5249 5C31.884 8.094 35.1853 13.812 35.1853 20C35.1853 26.188 31.884 31.906 26.5249 35L35.1853 40L52.5059 30V10L35.1853 0Z" fill="#6CEA96"/>
<path d="M84.8353 35.005L81.6444 26.563H69.4059L66.2151 35.005H61.166L72.7584 4.95386H78.292L89.965 35.005H84.8355H84.8353ZM70.8599 22.4028H80.1905L75.5051 10.1239L70.8601 22.4028H70.8599Z" fill="#F1F1F1"/>
<path d="M91.0664 26.3612V12.9515H95.8325V26.4016C95.8325 29.4311 97.529 31.1678 100.397 31.1678C103.345 31.1678 105.163 29.4311 105.163 26.3612V12.9515H109.929V26.321C109.929 31.7333 106.294 35.53 100.397 35.53C94.54 35.53 91.0664 31.7333 91.0664 26.3612Z" fill="#F1F1F1"/>
<path d="M113.557 12.9515H117.353L117.838 16.3848H117.919C119.413 13.5979 122.12 12.7092 124.099 12.7092C124.705 12.7092 125.189 12.7497 125.634 12.8306V17.5985H118.323V35.0055H113.557V12.9515Z" fill="#F1F1F1"/>
<path d="M125.835 24.0186C125.835 16.9905 130.682 12.4265 135.731 12.4265C138.962 12.4265 141.79 14.042 143.365 16.7483L143.89 12.9515H147.848V35.0052H143.89L143.365 31.2085C141.79 33.9145 138.962 35.5302 135.731 35.5302C130.682 35.5302 125.835 30.9659 125.835 24.0188V24.0186ZM143.203 23.9781C143.203 19.7777 140.457 16.7887 136.943 16.7887C133.348 16.7887 130.601 19.7777 130.601 23.9781C130.601 28.2192 133.348 31.1678 136.943 31.1678C140.457 31.1678 143.203 28.2192 143.203 23.9781Z" fill="#F1F1F1"/>
</g>
<defs>
<clipPath id="clip0_10_718">
<rect width="147.304" height="40" fill="white" transform="translate(0.543945)"/>
</clipPath>
</defs>
</svg>
